<svg width="24" height="24" viewBox="0 0 24 24" fill="none" xmlns="http://www.w3.org/2000/svg">
<path fill-rule="evenodd" clip-rule="evenodd" d="M19 5.5H5C4.72386 5.5 4.5 5.72386 4.5 6V19C4.5 19.2761 4.72386 19.5 5 19.5H19C19.2761 19.5 19.5 19.2761 19.5 19V6C19.5 5.72386 19.2761 5.5 19 5.5ZM5 4C3.89543 4 3 4.89543 3 6V19C3 20.1046 3.89543 21 5 21H19C20.1046 21 21 20.1046 21 19V6C21 4.89543 20.1046 4 19 4H5Z" fill="black"/>
<path d="M6 3C6 2.44772 6.44772 2 7 2C7.55228 2 8 2.44772 8 3V4C8 4.55228 7.55228 5 7 5C6.44772 5 6 4.55228 6 4V3Z" fill="black"/>
<path d="M16 3C16 2.44772 16.4477 2 17 2C17.5523 2 18 2.44772 18 3V4C18 4.55228 17.5523 5 17 5C16.4477 5 16 4.55228 16 4V3Z" fill="black"/>
<path fill-rule="evenodd" clip-rule="evenodd" d="M18 8.75C18 9.16421 17.6642 9.5 17.25 9.5L6.75 9.5C6.33579 9.5 6 9.16421 6 8.75C6 8.33579 6.33579 8 6.75 8L17.25 8C17.6642 8 18 8.33579 18 8.75Z" fill="black"/>
</svg>
